<svg xmlns="http://www.w3.org/2000/svg" viewBox="0 0 52.24 33.65"><defs><style>.cls-1{isolation:isolate;}.cls-2{opacity:0.6;}.cls-3{fill:#9e6b47;}.cls-4{fill:#562420;}.cls-5{fill:#fff;}.cls-6{fill:#cfcfcf;}.cls-7{fill:#6d3713;opacity:0.26;mix-blend-mode:multiply;}.cls-8{fill:#af7e5d;}</style></defs><title>boc3</title><g class="cls-1"><g id="Capa_1" data-name="Capa 1"><g class="cls-2"><path class="cls-3" d="M38.38,29a15.87,15.87,0,0,0-2-.41,20.1,20.1,0,0,0-2.05-.24,40.27,40.27,0,0,0-4.11-.09c-1.37,0-2.74.14-4.11.26s-2.75.33-4.14.48c.66-.24,1.33-.43,2-.63s1.36-.33,2-.45a26.72,26.72,0,0,1,4.18-.45,22.64,22.64,0,0,1,4.2.28A13.57,13.57,0,0,1,38.38,29Z"/></g><polygon class="cls-4" points="23.25 14.01 20.42 17.47 31.15 20.49 39.05 16.97 38.32 12.66 23.25 14.01"/><path class="cls-5" d="M22.9,13.56s9.42,1.43,14.82-.29L34.2,9.77s-6,.42-6.15.47S22.9,13.56,22.9,13.56Z"/><path class="cls-6" d="M23.61,14.34s2.77-2.3,5.31-2.28a17.12,17.12,0,0,0,4.4-.35c1.15-.22,3.69,2.67,3.69,2.67L35,9.24l-6.95,1L23.62,12Z"/><path class="cls-7" d="M36.11,21.71s-.21,2.93-4.41,3.61S22,20.71,22,20.71A28.06,28.06,0,0,0,36.11,21.71Z"/><path class="cls-8" d="M21.94,16.52s10.94,5.57,15.77-.86l4.4-.92S42.4,22,32.5,22.45c-11.26.5-13.79-2.58-14.68-5.94Z"/><path class="cls-3" d="M35.71,12.61a5,5,0,0,0-4.16-1.49,22.71,22.71,0,0,1-2.8,0c-3.21-.17-6.81,5.38-6.81,5.38s-3.6,2.29-4.12,0c-.16-.74,3.83-5.08,7.33-6.73C30.09,7.45,36.29,9,38.22,11c1.39,1.44,3.89,3.72,3.89,3.72s0,2.72-4.4.92A13.79,13.79,0,0,0,35.71,12.61Z"/><path class="cls-3" d="M24,21.77s8.72,1.59,14-.73c0,0-1.13,1.77-6.26,2S24,21.77,24,21.77Z"/><g class="cls-2"><path class="cls-3" d="M14.84,10.26A52.65,52.65,0,0,0,13.14,17a23,23,0,0,0-.28,3.42,24.31,24.31,0,0,0,.23,3.48,10.74,10.74,0,0,1-1-3.44,13.23,13.23,0,0,1,0-3.61A14.47,14.47,0,0,1,13,13.35,11.3,11.3,0,0,1,14.84,10.26Z"/></g></g></g></svg>