<svg id="Capa_1" data-name="Capa 1" xmlns="http://www.w3.org/2000/svg" viewBox="0 0 58.82 40.47"><defs><style>.cls-1{opacity:0.6;}.cls-2{fill:#9e6b47;}.cls-3{fill:#562c22;}.cls-4{fill:#935050;}.cls-5{fill:#9e5a5a;}.cls-6{fill:#fff;}.cls-7{fill:#ad7b59;}</style></defs><title>boc4</title><g class="cls-1"><path class="cls-2" d="M24.22,9.46a17.15,17.15,0,0,1-6,4.67,20.22,20.22,0,0,1-3.6,1.41c-1.23.41-2.56.53-3.62,1a7.64,7.64,0,0,0-4.23,5.44,17.28,17.28,0,0,0-.61,3.66,27.89,27.89,0,0,0,0,3.77l-.25,0a18.58,18.58,0,0,1,0-7.68,10.15,10.15,0,0,1,1.57-3.64,7.17,7.17,0,0,1,3.17-2.48c1.31-.49,2.56-.56,3.75-.91a25,25,0,0,0,3.55-1.18A20.34,20.34,0,0,0,24.22,9.46Z"/></g><g class="cls-1"><path class="cls-2" d="M46.43,37.38a15.87,15.87,0,0,0-2-.41c-.68-.11-1.36-.18-2-.24-1.37-.09-2.74-.13-4.11-.09s-2.74.15-4.11.26-2.74.33-4.14.48c.66-.23,1.33-.42,2-.63s1.36-.32,2.05-.45a25.55,25.55,0,0,1,4.18-.44,22.81,22.81,0,0,1,4.21.28A13.29,13.29,0,0,1,46.43,37.38Z"/></g><path class="cls-3" d="M18.16,19.48s5,9.64,16.06,10.48,14.37-3.84,14.3-8.38C48.52,21.58,29.21,25.28,18.16,19.48Z"/><path class="cls-4" d="M29.32,22.59s8.37,2.82,10.79,7.8c0,0-11,1.88-15.49-1.85A24.54,24.54,0,0,1,18,19.31S28.24,20.42,29.32,22.59Z"/><path class="cls-5" d="M35.9,25.92a49.32,49.32,0,0,0-14.3-.5,20.55,20.55,0,0,0,3,3.12c4.53,3.73,15.49,1.85,15.49,1.85A12.38,12.38,0,0,0,35.9,25.92Z"/><path class="cls-6" d="M27.4,27.72s10.73,2.14,17.42,0c0,0-2.63,2.19-7.7,2.24S28.15,28.83,27.4,27.72Z"/><path class="cls-7" d="M18.16,19.07A20.81,20.81,0,0,0,36.65,29.69c12.18-.1,11.87-8.28,11.87-8.28l1.5-.35S52.35,33.7,37.76,34c-18.24.38-19.9-13.86-20.36-14.94Z"/><path class="cls-2" d="M26.44,31.69s11.66,5.42,19.37.14c0,0-3,1.52-8.73,1.53A38.56,38.56,0,0,1,26.44,31.69Z"/><path class="cls-6" d="M48.28,21.18s1.52,3.59-11.53,3.59-18.59-5.7-18.59-5.7S33.37,22.92,48.28,21.18Z"/><path class="cls-2" d="M17.4,19.07a53.36,53.36,0,0,0,21.21,3.24c3.75-.15,8.74-.51,10.8-.86,2.64-.44,3.1-2.42,1.46-2.38-1.42,0-5.68,1-11.33,1.27A150.59,150.59,0,0,1,17.4,19.07Z"/><path class="cls-2" d="M20.36,19.65a13.32,13.32,0,0,1-3.57-1.53c-1-.81-1.36.65.34,1.13A11.53,11.53,0,0,0,20.36,19.65Z"/></svg>