<svg id="Capa_1" data-name="Capa 1" xmlns="http://www.w3.org/2000/svg" viewBox="0 0 58.82 36.71"><defs><style>.cls-1{opacity:0.6;}.cls-2{fill:#9e6b47;}.cls-3{fill:#562c22;}.cls-4{fill:#935050;}.cls-5{fill:#9e5a5a;}.cls-6{fill:#ad7b59;}.cls-7{fill:#fff;}</style></defs><title>boc5</title><g class="cls-1"><path class="cls-2" d="M45.25,34a16,16,0,0,0-2-.4,20.24,20.24,0,0,0-2-.24c-1.37-.1-2.74-.13-4.12-.1s-2.74.15-4.11.26-2.74.33-4.13.48c.66-.23,1.33-.42,2-.63s1.36-.32,2.05-.45A26.45,26.45,0,0,1,37,32.5a22.76,22.76,0,0,1,4.2.28A13.35,13.35,0,0,1,45.25,34Z"/></g><path class="cls-3" d="M17.71,18.59a85.44,85.44,0,0,0,31.65-1.46s.08,7.74-4.35,9.54-14.5.52-18.62-1.34S17.71,18.59,17.71,18.59Z"/><path class="cls-4" d="M19.56,20.58s12.26-.36,17.6.82a15.57,15.57,0,0,1,8.09,4.41s-11,2.79-17.37,0S19.56,20.58,19.56,20.58Z"/><path class="cls-5" d="M41.43,23a78.94,78.94,0,0,0-18,.58,39.19,39.19,0,0,0,4.46,2.28c6.36,2.79,17.37,0,17.37,0A13.85,13.85,0,0,0,41.43,23Z"/><path class="cls-6" d="M19.19,19.31s6.55,6.34,18.3,6.05,10.36-8,10.36-8l2.29-.57S51.38,28.9,37.7,29.18s-21-10.66-21-10.66Z"/><path class="cls-7" d="M48,16.92a12.33,12.33,0,0,1,0,3.55,2.37,2.37,0,0,1-1.2.77S27,23.56,18.92,19c-1.55-.86-.07-.2-.23-.47C18.69,18.55,44.82,17.8,48,16.92Z"/><path class="cls-2" d="M17.37,18.53S23,19.82,37,19.29s16.22-2.76,13.76-3.51C49.36,15.34,34.93,17.13,17.37,18.53Z"/><path class="cls-2" d="M21.43,18.4a16.85,16.85,0,0,1-4.5-.34c-1.43-.48-1.07,1.12.93,1A13.35,13.35,0,0,0,21.43,18.4Z"/><path class="cls-2" d="M27.35,27.05S39.26,32,46.8,25.69c0,0-2.68,3.55-8.55,3.86A22.64,22.64,0,0,1,27.35,27.05Z"/><g class="cls-1"><path class="cls-2" d="M15.45,10.49a50.46,50.46,0,0,0-3.3,6.11A21.38,21.38,0,0,0,11,19.84a25.05,25.05,0,0,0-.63,3.43,10.74,10.74,0,0,1-.13-3.58,13.23,13.23,0,0,1,.92-3.49A14.9,14.9,0,0,1,12.92,13,11.34,11.34,0,0,1,15.45,10.49Z"/></g></svg>