<svg xmlns="http://www.w3.org/2000/svg" xmlns:xlink="http://www.w3.org/1999/xlink" viewBox="0 0 93.47 37.86"><defs><style>.cls-1{fill:none;}.cls-2{isolation:isolate;}.cls-3{fill:#6d3713;opacity:0.26;}.cls-3,.cls-8{mix-blend-mode:multiply;}.cls-4{clip-path:url(#clip-path);}.cls-5{fill:#fff;}.cls-6{fill:#613e22;}.cls-7{fill:#805b3a;}.cls-8{fill:#9e9e9e;opacity:0.45;}.cls-9{fill:#443a32;}.cls-10{clip-path:url(#clip-path-2);}</style><clipPath id="clip-path"><path class="cls-1" d="M63.63,24.85c2.32-3.22,10.58-3.61,17,1a6.41,6.41,0,0,1-2.35,6.4c-3.16,2.76-13.2-1.22-15-.86-1.3.26-1.59-1.27-1.24-3A9.08,9.08,0,0,1,63.63,24.85Z"/></clipPath><clipPath id="clip-path-2"><path class="cls-1" d="M34.34,25.84c-2.6-3.14-12.65-8.41-19.42.91,0,0-.86,2.84,2.9,5.67,3.53,2.65,14.63-1.65,16.64-1.34,1.43.21,1.74-1.33,1.34-3.09C35.51,26.73,35.18,26.87,34.34,25.84Z"/></clipPath></defs><title>ojo1</title><g class="cls-2"><g id="Capa_1" data-name="Capa 1"><path class="cls-3" d="M13.61,26.86s-9,.21-9.36-9.74c0,0,8.05-6.6,12.28-6.59,9.18,0,22.88,5.87,22.88,5.87a30.26,30.26,0,0,1-.7,10.91,3,3,0,0,1-4.11,1.88C29.93,27.05,20.42,23.54,13.61,26.86Z"/><path class="cls-3" d="M59.6,27.8a22,22,0,0,1,1.69-13s9.34-5.9,23.15-2.77c0,0-1.08,5.95-1.69,8.9s-1,2.8-1,2.8S69.33,26,63.85,29.58A2.78,2.78,0,0,1,59.6,27.8Z"/><g class="cls-4"><path class="cls-5" d="M63.63,24.85C66,21.63,74.52,16,80.69,25.07a7.72,7.72,0,0,1-2.4,7.17c-3.16,2.76-13.2-1.22-15-.86-1.3.26-1.59-1.27-1.24-3A9.08,9.08,0,0,1,63.63,24.85Z"/><circle class="cls-6" cx="70.37" cy="26.75" r="6.45"/><circle class="cls-7" cx="69.98" cy="26.28" r="6.02"/><circle class="cls-6" cx="69.97" cy="26.33" r="2.68"/><path class="cls-8" d="M61.92,29.17S66.43,24.06,73,25.06s7.57,4.17,7.57,4.17S82.43,26.07,82,25s-7.1-6-12.35-4.45-8.2,7.46-8.2,7.46Z"/></g><path class="cls-9" d="M62,28.34S65.85,22.8,71.87,23a11.71,11.71,0,0,1,8.93,4.14h0a1.78,1.78,0,0,0,.12-3,16,16,0,0,0-10.17-2.61C63,22,62,28.34,62,28.34Z"/><path class="cls-5" d="M64.35,26.51a11.93,11.93,0,0,1,4.57-1.82l.21,1.59a11.14,11.14,0,0,0-3.77,1.88Z"/><g class="cls-10"><path class="cls-5" d="M34,24.55c-2.6-3.14-12.14-8.55-18.91.77a7.15,7.15,0,0,0,2.72,7.1c3.53,2.65,14.63-1.65,16.64-1.34,1.43.21,1.74-1.33,1.34-3.09A8.55,8.55,0,0,0,34,24.55Z"/><circle class="cls-6" cx="24.19" cy="26.95" r="6.45"/><circle class="cls-7" cx="23.71" cy="26.57" r="6.02"/><circle class="cls-6" cx="23.72" cy="26.62" r="2.68"/><path class="cls-8" d="M35.94,28.82A15.2,15.2,0,0,0,23.6,25.06c-7.31,1.21-8.36,4.42-8.36,4.42s-2.06-3.1-1.57-4.15,7.82-6.25,13.65-4.85,9.15,7.21,9.15,7.21Z"/></g><path class="cls-9" d="M35.8,28a13.58,13.58,0,0,0-10.61-5A12.91,12.91,0,0,0,15,27.42h0a1.45,1.45,0,0,1-.51-2.59,18.82,18.82,0,0,1,12.13-3.55C35.86,21.85,35.8,28,35.8,28Z"/><path class="cls-5" d="M23.33,25.07a11.88,11.88,0,0,0-4.47,2.05l1,1.26a11.06,11.06,0,0,1,4-1.43Z"/><path class="cls-9" d="M39.47,11.85l.74,7.41s-19.49-6.67-34.13-.11A1.27,1.27,0,0,1,4.49,17.3c1.74-2.76,4.26-6.09,6.7-6.89C15.52,9,33.26,9.56,39.47,11.85Z"/><path class="cls-9" d="M60.71,12.7l-.52,2.22a2.09,2.09,0,0,0,2.75,2.45c4.7-1.68,13.15-3.82,21-1.27,1.14.36.8,1.5,1.14.36l-.3-1.05c.14-.46,1-1.88.8-2.32-.68-1.71-.89-3.45-2.24-3.89C79.73,8,68.65,9,62.09,11.17A2.11,2.11,0,0,0,60.71,12.7Z"/></g></g></svg>