<svg xmlns="http://www.w3.org/2000/svg" viewBox="0 0 61.18 38.59"><defs><style>.cls-1{isolation:isolate;}.cls-2{fill:#6d3713;opacity:0.14;mix-blend-mode:multiply;}.cls-3{fill:#7c422e;}.cls-4{fill:#9e6b47;}.cls-5{opacity:0.6;}</style></defs><title>boc1</title><g class="cls-1"><g id="Capa_1" data-name="Capa 1"><path class="cls-2" d="M52.32,17.54s2.21,6.21-10.67,7.07-18.43-3.88-23-8.61C18.61,16,37.57,23,52.32,17.54Z"/><path class="cls-3" d="M50.15,17.37h0a1.42,1.42,0,0,1,0,.22C50.14,17.52,50.15,17.45,50.15,17.37Z"/><path class="cls-4" d="M18.89,16.54a54.16,54.16,0,0,0,21.47,3.28c3.8-.15,8.85-.52,10.93-.87,2.67-.45,3.14-2.45,1.48-2.41-1.43,0-5.75,1.06-11.46,1.28A151.67,151.67,0,0,1,18.89,16.54Z"/><path class="cls-4" d="M21.89,17.12a13.36,13.36,0,0,1-3.62-1.54c-1-.82-1.37.66.34,1.14A11.9,11.9,0,0,0,21.89,17.12Z"/><path class="cls-4" d="M28.79,23.06s12,5.16,19.93-.26c0,0-3,1.56-9,1.57A51.39,51.39,0,0,1,28.79,23.06Z"/><g class="cls-5"><path class="cls-4" d="M26.51,4.55a17.35,17.35,0,0,1-6,4.67,19.73,19.73,0,0,1-3.6,1.4c-1.23.42-2.56.54-3.62,1A7.68,7.68,0,0,0,9,17a17.82,17.82,0,0,0-.6,3.66,26.22,26.22,0,0,0,0,3.76l-.26,0a19,19,0,0,1,0-7.69,10.38,10.38,0,0,1,1.58-3.63,7.1,7.1,0,0,1,3.17-2.48c1.31-.49,2.55-.56,3.75-.91A24.91,24.91,0,0,0,20.2,8.6,20.27,20.27,0,0,0,26.51,4.55Z"/></g><g class="cls-5"><path class="cls-4" d="M48.72,32.47a15.87,15.87,0,0,0-2-.41c-.68-.11-1.37-.18-2-.24-1.37-.09-2.74-.13-4.11-.09s-2.74.14-4.12.26-2.74.33-4.13.48c.66-.23,1.33-.42,2-.63s1.36-.32,2-.45A25.44,25.44,0,0,1,40.51,31a21.87,21.87,0,0,1,4.2.28A13.35,13.35,0,0,1,48.72,32.47Z"/></g></g></g></svg>