<svg xmlns="http://www.w3.org/2000/svg" xmlns:xlink="http://www.w3.org/1999/xlink" viewBox="0 0 224.47 167.93"><defs><style>.cls-1{fill:none;}.cls-2{isolation:isolate;}.cls-3{clip-path:url(#clip-path);}.cls-4{fill:#555e85;}.cls-5{fill:#374060;}.cls-6{fill:#c29570;}.cls-7{fill:#6d3713;opacity:0.26;mix-blend-mode:multiply;}</style><clipPath id="clip-path"><path class="cls-1" d="M220.8,56.77c0-59-47.85-220.43-106.89-220.43S7-2.26,7,56.77a106.89,106.89,0,1,0,213.77,0Z"/></clipPath></defs><title>torso</title><g class="cls-2"><g id="Capa_1" data-name="Capa 1"><g class="cls-3"><path class="cls-4" d="M232.51,225.67H207.05a22.91,22.91,0,0,1-4.21-4c-12.66-15.45-30-86.8-37.19-106.6s-1.87-28.15-1.87-28.15c31.77-44.38,60.77-9,62.92,13,1.61,16.49,6.86,47.47,9.55,61.59s12,44.72,9,50.83A33,33,0,0,1,232.51,225.67Z"/><path class="cls-5" d="M210.38,124.18s.13,1.13.31,3.18c1,11.88,3.34,54.65-11.86,87.85,0,0-2.38-2.92-4.91-9.49C193.92,205.72,210.6,147.23,210.38,124.18Z"/><path class="cls-4" d="M197.4,210.19c.75,5.29,1.33,10.45,1.79,15.48H42.72c-.12-1.23-.24-2.37-.36-3.39-2.26-19.47-6.46-57.22-18.73-77s-25.19-64.73-22-78.54,53.8-11.38,74.42-16.7c5-1.3,13.06-1.56,21.75-1.3,19.65.6,42.75,3.88,42.75,3.88l64.88,14.77C226.46,92.32,194.19,187.58,197.4,210.19Z"/><path class="cls-5" d="M49.79,105.45s-11,88-9.52,99.81c0,0-6.6-39.77-15.29-56.89C25,148.37,44.72,107.08,49.79,105.45Z"/><path class="cls-4" d="M19.81,169.8c-5.57,13.39-5.46,49.08-23.32,52.95-4.56,1-10,2.3-15.27,2.92H-29.07c-6.61-1.09-11.69-4.9-12.57-14.26C-43.57,190.88-22.79,113.9-17.84,93S1.07,63.83,1.07,63.83C53,36.09,57.86,101.5,45.91,112.72S25.37,156.42,19.81,169.8Z"/><path class="cls-5" d="M153.33,55.54l9.91,2.26s-11.82,22.65-39.59,22.1S63,52.26,63,52.26l11.36-2S127.09,88,153.33,55.54Z"/><path class="cls-6" d="M141.06,51.94s10.12,2,16.05,3.55c0,0-1.92,15.38-33.46,15.51s-49.3-20.79-49.3-20.79a21.85,21.85,0,0,0,9.49-2.42S112.51,59.33,141.06,51.94Z"/><path class="cls-6" d="M142.72,24.22s-3.58,18.91.89,30.52c0,0-9.27,25.4-61.25-2.12,0,0,8.48-23.26,2.5-43.2Z"/><path class="cls-7" d="M90.89,11.45v2.82s14.41,30.18,35.54,34.4c5,1,12,.19,15.52-.54-.56-10.63-5.21-24.56-5.21-24.56Z"/><path class="cls-5" d="M154.29,54.78l9.9,2.26S151.42,80.45,123.65,79.9,63,52.26,63,52.26l11.36-2S128,87.21,154.29,54.78Z"/></g></g></g></svg>