<svg xmlns="http://www.w3.org/2000/svg" viewBox="0 0 57.41 35.06"><defs><style>.cls-1{isolation:isolate;}.cls-2{opacity:0.6;}.cls-3{fill:#9e6b47;}.cls-4{fill:#6d3713;opacity:0.14;mix-blend-mode:multiply;}.cls-5{fill:#7c422e;}.cls-6{fill:#fff;}</style></defs><title>boc2</title><g class="cls-1"><g id="Capa_1" data-name="Capa 1"><g class="cls-2"><path class="cls-3" d="M24.25,3.79a17.15,17.15,0,0,1-6,4.67,20.22,20.22,0,0,1-3.6,1.41c-1.23.41-2.56.53-3.62,1a7.64,7.64,0,0,0-4.24,5.43,17.93,17.93,0,0,0-.6,3.66,26.35,26.35,0,0,0,0,3.77l-.26,0a18.8,18.8,0,0,1,0-7.69,10.3,10.3,0,0,1,1.57-3.64,7.17,7.17,0,0,1,3.17-2.48C12,9.44,13.21,9.38,14.4,9a27.72,27.72,0,0,0,3.54-1.18A20.48,20.48,0,0,0,24.25,3.79Z"/></g><g class="cls-2"><path class="cls-3" d="M46.46,31.72a14.32,14.32,0,0,0-2-.41,20.44,20.44,0,0,0-2-.24c-1.37-.1-2.74-.13-4.11-.1s-2.74.15-4.12.26-2.74.33-4.13.49c.66-.24,1.33-.43,2-.64s1.36-.32,2-.45a28,28,0,0,1,4.18-.44,22.7,22.7,0,0,1,4.2.28A13.37,13.37,0,0,1,46.46,31.72Z"/></g><path class="cls-4" d="M50.07,16.84s2.25,8.45-10.63,9.31S21,22.09,16.35,15.3C16.35,15.3,35.31,22.3,50.07,16.84Z"/><path class="cls-5" d="M47.89,16.62h0a1.4,1.4,0,0,1,0,.21C47.88,16.77,47.89,16.69,47.89,16.62Z"/><path class="cls-6" d="M47.89,17.26s1.53,4.62-11.68,4.62S17.4,15.12,17.4,15.12,32.79,19,47.89,17.26Z"/><path class="cls-3" d="M16.63,15.12A53.94,53.94,0,0,0,38.1,18.4c3.8-.15,8.85-.51,10.93-.87,2.67-.45,3.15-2.45,1.48-2.41-1.43,0-5.75,1.06-11.46,1.28A151.74,151.74,0,0,1,16.63,15.12Z"/><path class="cls-3" d="M19.63,15.71A13.49,13.49,0,0,1,16,14.16c-1-.82-1.37.66.34,1.14A12.15,12.15,0,0,0,19.63,15.71Z"/><path class="cls-3" d="M26.75,24.55s12,5.16,19.93-.27c0,0-3,1.57-9,1.58A51.36,51.36,0,0,1,26.75,24.55Z"/></g></g></svg>