<svg xmlns="http://www.w3.org/2000/svg" viewBox="0 0 128.33 169.41"><defs><style>.cls-1{isolation:isolate;}.cls-2{fill:#443a32;}.cls-3{fill:#c29570;}.cls-4{fill:#7c422e;}.cls-5{fill:#6d3713;opacity:0.26;mix-blend-mode:multiply;}.cls-6{fill:#9e6b47;}</style></defs><title>cabeza</title><g class="cls-1"><g id="Capa_1" data-name="Capa 1"><path class="cls-2" d="M41.11,139.83s-23.55-16.36-28.42-39.1S5.47,56.32,10.63,37.84,44.57,5.21,73.87,9.66Z"/><path class="cls-3" d="M109.22,29s10.39,14.32,12.63,28.36-2.8,19.94-1.68,29.2,3.29,16.81-5.7,33.66-15.36,25.32-17.61,29.53-6.74,10.95-18.25,7-30.39-8.21-40.5-19.44S24.69,109.62,25.82,97.55A152.73,152.73,0,0,0,26.66,79s-2-15.72-1.15-27.24S33.4,18.64,55.3,14.42,98.64,16.3,109.22,29Z"/><path class="cls-3" d="M120.78,91.51s1.91,10.89.47,20.84c-4.4,30.37-13.93,30.06-19.76,40.05-1.8,3.08-5.68,8.75-21.09,4.49-11.61-3.2-38.08-20.37-38.08-20.37l4.11-8.2Z"/><path class="cls-4" d="M99.24,122.06h0s0,.09,0,.23C99.23,122.22,99.24,122.14,99.24,122.06Z"/><path class="cls-3" d="M26.54,87.25S23.91,75.4,19,74.82s-8.42.79-10.53,4c-4.35,6.69-.55,18,4.22,21.88s9.45,7.77,13.85,8S26.54,87.25,26.54,87.25Z"/><path class="cls-5" d="M22.93,92.34s-2.81,3-1.12,5.86-6.27,2.25-9.74-5.24.1-13.16,2.53-13.37S21.34,79.59,22.93,92.34Z"/><path class="cls-2" d="M16.78,42.68S31.34,21.54,33,21.54l4.22.17-2.41-5.84s30-7.4,39.09-6.21,34.28,8.8,40.62,21.84,4.05,14.56,4.05,14.56-3.87-10.75-7.68-11.84S109,40,95.35,41.65s-27.4-8.34-38.1-8a21.58,21.58,0,0,0-7,1.29c-9.33,6.4-9.48,27.49-13.61,30.44-4.83,3.44-7-1.21-6.31,13,.49,9.7.63,11.91.67,12.33l-4.42-3.49Z"/><path class="cls-2" d="M31,90.74h0S31,90.94,31,90.74Z"/><path class="cls-5" d="M99.43,108.12s-1.45,8.35-8,8.45S80.61,110.41,79.82,109C79.82,109,92,112.22,99.43,108.12Z"/><path class="cls-6" d="M93.44,98.53s4.25,4.69,4.2,6.64c-.06,2.4-4.47,4.58-12.81,3.06-6.1-1.12-5.9-3.34-5.9-3.34s-4.41,5.47,10,5.88c12.77.36,11.34-5.14,11-6.5C99.79,103.38,97.49,100.64,93.44,98.53Z"/></g></g></svg>