<svg xmlns="http://www.w3.org/2000/svg" viewBox="0 0 97 29.39"><defs><style>.cls-1{isolation:isolate;}.cls-2{fill:#6d3713;opacity:0.26;mix-blend-mode:multiply;}.cls-3{fill:#443a32;}</style></defs><title>ojo2</title><g class="cls-1"><g id="Capa_1" data-name="Capa 1"><path class="cls-2" d="M15.67,23.76S5.93,22.43,5.56,12c0,0,8.45-6.93,12.88-6.92,9.63,0,24,6.16,24,6.16a31.87,31.87,0,0,1-.74,11.44c-.52,1.85-2.74,3.08-4.31,2C31,20.16,22.81,20.29,15.67,23.76Z"/><path class="cls-2" d="M63.63,23.2A23.1,23.1,0,0,1,65.41,9.6s9.8-6.19,24.28-2.9c0,0-1.13,6.24-1.77,9.33s-1,7.52-1,7.52-9.34-5.63-19.3,0C65.82,24.57,64,25.24,63.63,23.2Z"/><path class="cls-3" d="M38.66,25.54s-4-3.46-11.51-3.54c-7.16-.08-10.31,2.94-10.31,2.94h0a1.52,1.52,0,0,1-.53-2.72c2.25-1.62,6.48-3.39,12.49-3C38.49,19.79,38.66,25.54,38.66,25.54Z"/><path class="cls-3" d="M38.66,25.54s-4-3.46-11.51-3.54c-7.16-.08-10.31,2.94-10.31,2.94h0a1.52,1.52,0,0,1-.53-2.72c2.25-1.62,6.48-3.39,12.49-3C38.49,19.79,38.66,25.54,38.66,25.54Z"/><path class="cls-3" d="M66.07,25.54a16.45,16.45,0,0,1,10.47-3.66c6.49-.16,9.31,2.82,9.31,2.82h0A1.59,1.59,0,0,0,86.4,22c-2-1.6-5.84-3.32-11.29-2.88C66.28,19.79,66.07,25.54,66.07,25.54Z"/><path class="cls-3" d="M42.51,6.46l.77,7.78s-20.44-7-35.8-.12a1.34,1.34,0,0,1-1.67-1.94c1.83-2.9,4.47-6.39,7-7.22C17.38,3.48,36,4.07,42.51,6.46Z"/><path class="cls-3" d="M64.79,7.35l-.54,2.33a2.2,2.2,0,0,0,2.89,2.58c4.92-1.76,13.8-4,22.08-1.34,1.19.39.84,1.58,1.19.39l-.3-1.11c.14-.49,1-2,.83-2.44C90.23,6,90,4.15,88.6,3.68c-3.84-1.26-15.47-.22-22.35,2.08A2.21,2.21,0,0,0,64.79,7.35Z"/></g></g></svg>